<svg width="342" height="513" viewBox="0 0 342 513" fill="none" xmlns="http://www.w3.org/2000/svg">
  <rect width="342" height="513" fill="#E5E7EB"/>
  <path d="M171 206C182.046 206 191 197.046 191 186C191 174.954 182.046 166 171 166C159.954 166 151 174.954 151 186C151 197.046 159.954 206 171 206Z" fill="#9CA3AF"/>
  <path d="M121 326.5C121 325.119 122.119 324 123.5 324H218.5C219.881 324 221 325.119 221 326.5V346.5C221 347.881 219.881 349 218.5 349H123.5C122.119 349 121 347.881 121 346.5V326.5Z" fill="#9CA3AF"/>
  <path d="M191 276L221 324H121L146 284L161 308L191 276Z" fill="#9CA3AF"/>
</svg>